<?xml version="1.0" encoding="utf-8"?>
<!-- Generator: Adobe Illustrator 22.0.0, SVG Export Plug-In . SVG Version: 6.00 Build 0)  -->
<svg version="1.1" id="Layer_1" xmlns="http://www.w3.org/2000/svg" xmlns:xlink="http://www.w3.org/1999/xlink" x="0px" y="0px"
	 viewBox="0 0 1417.3 1417.3" style="enable-background:new 0 0 1417.3 1417.3;" xml:space="preserve">
<style type="text/css">
	.st0{fill:#304056;}
</style>
<g>
	<g>
		<path class="st0" d="M326.1,803.7c-18.5,31.6-59,42.2-93.5,40.2c-32.1-1.8-62.9-14.4-88.2-34l31.7-52.6
			c15.8,15.6,34.9,28.4,57.8,29.6c16.3,0.9,32.5-5.2,33.6-23.8c2.5-44.9-109-16.9-103.9-107.5c2.9-52.3,40.5-85.1,92.3-82.3
			c28.7,1.6,56.5,10.9,80.9,25.5l-29.6,50.8c-12.2-11.2-26.1-18.9-43.2-19.9c-13.2-0.7-29.1,5.8-29.9,20.9
			c-2.1,37.9,109.2,19.3,104.3,107.6C337.5,772.9,333.8,790.9,326.1,803.7z"/>
	</g>
	<g>
		<path class="st0" d="M534.3,636.3l0,201.7l-67.1,0V636.3l-54.7,0l0-57l177.6,0l0,57L534.3,636.3z"/>
	</g>
	<g>
		<path class="st0" d="M924.5,742.8c-12.8,65.5-62.4,103.9-128.7,103.9c-81.8,0-137.7-55.8-137.7-137.6
			c0-83.4,58.2-138.4,140.7-138.4c31.4,0,60.5,8.9,84.5,29.5c15.5,13.2,22.5,25.2,31.4,43.4l-64,26.4
			c-10.5-25.2-27.5-41.1-55.8-41.1c-43.4,0-66.7,41.5-66.7,80.7c0,41.1,23.3,81.4,68.6,81.4c29.9,0,49.2-14.3,53.5-44.6l-55.1,0
			v-52.3l133.4,0C928.8,710.2,927.6,726.9,924.5,742.8z"/>
	</g>
	<path class="st0" d="M1134.9,570.6c-76.3,0-138.1,61.8-138.1,138.1s61.8,138.1,138.1,138.1c76.3,0,138.1-61.8,138.1-138.1
		S1211.1,570.6,1134.9,570.6z M1134.9,781c-40,0-72.4-32.4-72.4-72.4s32.4-72.4,72.4-72.4c40,0,72.4,32.4,72.4,72.4
		S1174.8,781,1134.9,781z"/>
</g>
</svg>
